P2
# CREATOR: GIMP PNM Filter Version 1.1
40 29
255
197
197
186
145
98
101
102
110
116
114
113
114
129
126
124
121
129
120
104
68
114
148
149
146
148
127
102
123
128
108
81
99
90
97
89
83
76
84
81
70
200
181
124
91
87
98
103
102
103
109
107
108
116
111
106
114
118
100
76
41
80
120
141
138
129
104
86
109
115
81
77
102
105
114
102
95
90
100
89
81
176
110
76
91
84
94
98
97
91
83
85
88
92
92
95
99
97
77
51
37
59
102
138
123
115
71
57
91
102
62
94
100
114
115
95
84
107
106
100
98
93
74
76
85
89
86
90
93
90
87
65
64
62
56
71
63
71
48
44
37
47
72
96
85
65
38
37
57
59
55
76
104
113
118
75
90
118
108
112
107
70
72
68
84
77
67
59
60
78
75
55
55
58
52
46
49
48
43
40
34
42
44
51
45
46
38
34
38
39
38
47
73
114
91
86
111
126
118
114
110
70
76
66
70
62
61
51
42
50
55
47
46
48
44
41
46
40
41
44
43
44
44
41
41
36
34
36
35
32
31
34
44
59
66
96
129
131
126
117
116
60
61
58
57
53
48
43
41
45
43
42
43
43
40
41
37
40
39
37
41
51
40
48
49
46
57
35
38
31
30
36
32
33
47
84
122
129
131
120
119
65
49
43
45
48
43
40
43
42
44
49
42
37
41
42
36
38
36
37
34
43
47
56
77
65
47
42
38
32
38
31
32
39
31
43
77
101
120
127
127
56
49
43
40
37
40
44
43
41
45
47
43
45
36
34
33
37
37
38
39
72
59
90
112
104
84
61
50
38
34
30
38
32
30
37
50
75
104
120
129
57
42
39
39
44
38
39
39
38
47
38
42
40
36
35
37
38
35
41
46
61
82
132
158
145
136
95
70
48
34
32
33
35
30
33
37
58
90
107
122
48
33
37
40
39
41
40
44
43
38
34
45
40
40
31
38
38
67
53
59
86
122
159
191
190
171
144
112
91
50
34
31
29
32
33
35
41
71
101
120
40
33
32
33
42
44
53
68
57
34
38
54
51
36
31
27
32
80
79
55
79
115
169
199
201
187
172
159
150
90
61
35
35
49
66
64
53
69
98
114
46
35
33
34
43
57
74
81
71
42
52
72
70
39
29
27
31
47
83
55
41
64
160
202
201
196
189
189
183
133
99
63
49
53
95
99
73
64
89
113
43
33
37
42
48
61
83
95
80
40
49
86
85
68
38
32
34
60
106
68
47
59
151
201
200
194
194
194
189
168
137
90
61
57
82
123
99
72
80
106
40
42
35
37
56
62
86
107
98
62
44
85
91
81
63
56
58
83
103
64
45
80
174
204
201
201
203
200
197
188
166
120
78
59
78
115
111
82
79
97
50
36
33
35
58
64
84
109
113
90
58
49
76
90
76
76
84
75
62
47
58
119
195
207
203
205
208
201
203
196
179
142
99
65
60
98
116
95
81
84
68
45
37
42
58
73
81
99
120
107
79
51
52
71
78
82
71
67
46
57
105
170
205
208
207
208
208
201
203
198
179
151
113
82
72
88
116
107
90
86
88
65
40
33
41
57
81
96
106
118
105
81
54
49
46
52
48
56
69
99
155
195
205
203
205
204
206
198
196
187
170
151
122
104
84
90
115
115
106
90
99
78
54
37
37
63
89
104
102
107
113
105
87
73
53
55
66
79
119
154
185
199
200
197
198
202
200
193
191
183
156
139
128
122
108
94
104
116
112
101
108
90
72
58
58
72
89
104
109
109
115
124
113
99
91
92
109
131
159
183
193
194
198
202
203
206
203
198
195
169
142
127
135
133
139
101
99
110
123
116
124
106
96
85
80
83
84
83
99
108
121
131
133
123
124
131
139
151
178
184
190
193
196
199
203
206
203
196
177
150
134
128
137
145
129
104
101
113
121
119
132
120
115
107
96
88
93
72
64
101
113
124
129
137
141
148
148
151
162
168
171
183
183
189
192
188
180
169
160
163
147
138
133
124
112
105
107
120
117
123
133
125
127
119
102
99
104
96
99
110
103
99
104
123
123
133
143
145
143
151
161
161
165
172
171
163
170
174
183
184
172
153
146
143
139
127
126
127
122
120
133
133
132
124
109
108
116
117
117
115
97
99
95
112
100
86
111
123
126
138
144
138
140
162
154
134
153
155
157
168
167
165
164
169
168
152
139
131
121
114
136
138
137
127
124
122
127
128
121
111
99
94
109
114
89
78
107
118
120
123
116
95
96
118
104
90
118
151
156
162
161
174
171
171
161
150
135
126
114
107
131
137
139
134
130
135
131
132
122
119
98
110
118
111
98
81
119
118
129
125
131
104
102
120
113
93
117
161
145
139
149
160
156
157
144
142
128
120
115
111
136
132
136
135
134
142
140
139
132
120
108
119
119
112
102
99
125
115
126
129
134
113
98
125
129
120
126
160
137
137
144
145
143
144
137
133
133
123
116
106
139
130
134
130
133
138
141
142
134
121
120
131
127
119
113
114
121
116
127
126
122
123
109
131
140
134
136
152
144
145
143
141
141
137
135
142
141
134
120
108
136
138
135
128
134
135
138
141
140
130
128
140
134
132
127
127
127
130
132
132
139
135
131
140
140
146
145
151
151
156
150
146
139
142
144
148
149
132
120
111
